<svg xmlns="http://www.w3.org/2000/svg" xmlns:xlink="http://www.w3.org/1999/xlink" width="500" zoomAndPan="magnify" viewBox="0 0 375 374.999991" height="500" preserveAspectRatio="xMidYMid meet" version="1.0"><defs><g/><clipPath id="e389a6fbc5"><path d="M 131.125 188 L 220 188 L 220 332 L 131.125 332 Z M 131.125 188 " clip-rule="nonzero"/></clipPath><clipPath id="a0df7ba65f"><path d="M 155 141.550781 L 243.625 141.550781 L 243.625 286 L 155 286 Z M 155 141.550781 " clip-rule="nonzero"/></clipPath></defs><g clip-path="url(#e389a6fbc5)"><path fill="#00adef" d="M 131.527344 190.433594 C 131.664062 191.226562 131.867188 192.195312 132.082031 193.347656 C 132.214844 193.917969 132.355469 194.53125 132.507812 195.183594 C 132.652344 195.839844 132.835938 196.53125 133.046875 197.257812 C 133.84375 200.167969 134.984375 203.6875 136.734375 207.558594 C 137.15625 208.535156 137.65625 209.507812 138.144531 210.53125 C 138.671875 211.527344 139.191406 212.570312 139.796875 213.601562 C 140.96875 215.683594 142.308594 217.816406 143.832031 219.949219 C 145.191406 221.863281 146.695312 223.789062 148.320312 225.699219 C 147.488281 224.855469 146.691406 224.019531 145.9375 223.195312 C 143.050781 220.042969 140.734375 217.074219 138.941406 214.535156 C 138.042969 213.265625 137.292969 212.09375 136.625 211.082031 C 135.992188 210.046875 135.421875 209.179688 135.019531 208.445312 C 134.601562 207.71875 134.277344 207.160156 134.058594 206.785156 C 133.855469 206.402344 133.75 206.207031 133.75 206.207031 C 133.75 206.207031 133.828125 206.414062 133.980469 206.820312 C 134.148438 207.226562 134.394531 207.820312 134.71875 208.597656 C 135.035156 209.378906 135.492188 210.3125 135.996094 211.425781 C 136.539062 212.523438 137.160156 213.789062 137.945312 215.15625 C 139.488281 217.902344 141.507812 221.1875 144.199219 224.644531 C 146.863281 228.121094 150.128906 231.828125 153.957031 235.496094 C 157.773438 239.179688 162.121094 242.84375 166.761719 246.453125 C 171.394531 250.066406 176.320312 253.636719 181.128906 257.320312 C 183.527344 259.160156 185.894531 261.039062 188.136719 262.984375 C 190.359375 264.9375 192.496094 266.941406 194.371094 269.035156 C 196.253906 271.128906 197.875 273.304688 199.175781 275.566406 C 199.839844 276.691406 200.375 277.855469 200.875 279.027344 C 201.355469 280.203125 201.730469 281.414062 202.054688 282.640625 C 202.34375 283.882812 202.605469 285.132812 202.734375 286.429688 C 202.78125 286.75 202.804688 287.078125 202.824219 287.40625 L 202.898438 288.382812 C 202.890625 289.007812 202.894531 289.628906 202.902344 290.25 C 202.820312 292.714844 202.386719 295.101562 201.601562 297.390625 L 201.28125 298.242188 C 201.179688 298.523438 201.089844 298.8125 200.941406 299.082031 C 200.679688 299.636719 200.417969 300.1875 200.15625 300.738281 C 199.839844 301.269531 199.53125 301.804688 199.230469 302.34375 C 198.910156 302.871094 198.527344 303.375 198.1875 303.894531 C 196.71875 305.933594 194.96875 307.824219 193.039062 309.550781 C 191.082031 311.257812 188.945312 312.78125 186.746094 314.167969 C 185.613281 314.820312 184.515625 315.503906 183.351562 316.074219 C 182.21875 316.695312 181.035156 317.207031 179.886719 317.746094 C 175.21875 319.804688 170.488281 321.207031 166.039062 322.15625 C 161.585938 323.09375 157.398438 323.570312 153.6875 323.710938 C 149.972656 323.832031 146.738281 323.679688 144.085938 323.429688 C 142.773438 323.253906 141.578125 323.164062 140.574219 322.96875 C 139.558594 322.800781 138.675781 322.691406 137.992188 322.515625 C 136.601562 322.226562 135.859375 322.070312 135.859375 322.070312 C 135.859375 322.070312 136.570312 322.335938 137.902344 322.839844 C 138.566406 323.109375 139.417969 323.34375 140.414062 323.660156 C 141.402344 324 142.582031 324.253906 143.898438 324.582031 C 146.546875 325.148438 149.824219 325.734375 153.660156 325.953125 C 157.492188 326.191406 161.871094 326.132812 166.609375 325.511719 C 168.785156 325.222656 171.042969 324.820312 173.34375 324.292969 C 172.246094 324.640625 171.171875 324.957031 170.128906 325.234375 C 166.359375 326.21875 162.996094 326.867188 160.199219 327.25 C 158.800781 327.425781 157.542969 327.554688 156.449219 327.679688 C 155.351562 327.761719 154.417969 327.832031 153.660156 327.886719 C 152.902344 327.9375 152.324219 327.941406 151.929688 327.960938 C 151.535156 327.972656 151.332031 327.980469 151.332031 327.980469 C 151.332031 327.980469 151.535156 328.003906 151.925781 328.046875 C 152.316406 328.082031 152.898438 328.164062 153.660156 328.222656 C 154.421875 328.269531 155.363281 328.324219 156.46875 328.390625 C 157.578125 328.410156 158.855469 328.445312 160.289062 328.410156 C 163.152344 328.34375 166.644531 328.109375 170.609375 327.429688 C 171.496094 327.28125 172.410156 327.105469 173.339844 326.914062 C 173.320312 326.917969 173.300781 326.925781 173.277344 326.933594 C 168.53125 328.34375 164.035156 329.195312 160.007812 329.683594 C 155.980469 330.148438 152.421875 330.273438 149.488281 330.253906 C 148.023438 330.199219 146.707031 330.199219 145.566406 330.097656 C 144.425781 330.015625 143.449219 329.980469 142.664062 329.867188 C 141.085938 329.691406 140.246094 329.597656 140.246094 329.597656 C 140.246094 329.597656 141.066406 329.804688 142.609375 330.199219 C 143.378906 330.40625 144.34375 330.574219 145.476562 330.800781 C 146.613281 331.050781 147.929688 331.214844 149.410156 331.414062 C 152.367188 331.757812 155.996094 332.054688 160.175781 331.925781 C 164.347656 331.796875 169.070312 331.351562 174.128906 330.226562 C 179.175781 329.105469 184.589844 327.398438 189.992188 324.726562 C 192.691406 323.398438 195.363281 321.789062 197.984375 319.949219 C 200.578125 318.058594 203.078125 315.882812 205.367188 313.378906 C 205.921875 312.734375 206.476562 312.085938 207.035156 311.433594 C 207.289062 311.089844 207.542969 310.746094 207.796875 310.398438 C 207.660156 310.617188 207.515625 310.839844 207.378906 311.054688 C 207.160156 311.421875 206.90625 311.75 206.65625 312.082031 C 206.410156 312.414062 206.167969 312.742188 205.925781 313.066406 C 205.679688 313.390625 205.445312 313.722656 205.199219 314.03125 C 204.941406 314.335938 204.691406 314.632812 204.441406 314.929688 C 203.933594 315.511719 203.460938 316.117188 202.949219 316.644531 C 201.929688 317.703125 200.980469 318.75 199.996094 319.613281 C 199.507812 320.054688 199.039062 320.488281 198.585938 320.902344 C 198.117188 321.292969 197.664062 321.671875 197.226562 322.035156 C 196.789062 322.398438 196.371094 322.757812 195.964844 323.082031 C 195.546875 323.394531 195.152344 323.691406 194.777344 323.976562 C 193.273438 325.128906 192.042969 325.941406 191.207031 326.519531 C 190.792969 326.8125 190.472656 327.035156 190.25 327.167969 C 190.027344 327.308594 189.914062 327.378906 189.914062 327.378906 C 189.914062 327.378906 190.039062 327.332031 190.285156 327.242188 C 190.535156 327.160156 190.898438 327.015625 191.367188 326.816406 C 192.292969 326.402344 193.707031 325.882812 195.398438 324.964844 C 195.828125 324.742188 196.277344 324.511719 196.753906 324.269531 C 197.21875 324.011719 197.699219 323.71875 198.207031 323.425781 C 198.707031 323.125 199.234375 322.8125 199.777344 322.484375 C 200.304688 322.121094 200.847656 321.746094 201.410156 321.355469 C 202.558594 320.609375 203.695312 319.660156 204.914062 318.691406 C 205.523438 318.203125 206.101562 317.628906 206.714844 317.074219 C 207.019531 316.789062 207.328125 316.503906 207.636719 316.214844 C 207.9375 315.914062 208.226562 315.589844 208.527344 315.269531 C 208.824219 314.945312 209.125 314.621094 209.429688 314.292969 C 209.734375 313.957031 210.046875 313.632812 210.324219 313.261719 C 210.898438 312.53125 211.476562 311.789062 212.070312 311.03125 C 212.613281 310.234375 213.15625 309.402344 213.703125 308.558594 C 213.988281 308.144531 214.21875 307.6875 214.464844 307.238281 C 214.710938 306.785156 214.957031 306.324219 215.203125 305.863281 C 217.101562 302.132812 218.492188 297.777344 219.015625 293.171875 C 219.078125 292.597656 219.140625 292.019531 219.203125 291.4375 C 219.234375 290.859375 219.238281 290.277344 219.257812 289.691406 C 219.265625 289.109375 219.273438 288.519531 219.285156 287.929688 C 219.296875 287.339844 219.242188 286.785156 219.222656 286.207031 C 219.09375 283.914062 218.808594 281.5625 218.257812 279.226562 C 217.738281 276.890625 217.003906 274.566406 216.074219 272.324219 C 215.144531 270.078125 214.003906 267.933594 212.75 265.90625 C 211.480469 263.890625 210.085938 262 208.617188 260.238281 C 207.144531 258.484375 205.601562 256.859375 204.027344 255.351562 C 202.464844 253.828125 200.863281 252.433594 199.265625 251.128906 C 197.664062 249.820312 196.070312 248.597656 194.503906 247.441406 C 191.359375 245.121094 188.296875 243.09375 185.421875 241.210938 C 182.542969 239.339844 179.839844 237.636719 177.375 236.066406 C 174.914062 234.5 172.671875 233.085938 170.714844 231.804688 C 168.773438 230.511719 167.070312 229.40625 165.703125 228.457031 C 165.019531 227.988281 164.40625 227.566406 163.875 227.199219 C 163.339844 226.835938 162.890625 226.523438 162.53125 226.257812 C 161.800781 225.75 161.410156 225.476562 161.410156 225.476562 C 161.410156 225.476562 161.71875 225.839844 162.304688 226.511719 C 162.597656 226.847656 162.960938 227.257812 163.40625 227.734375 C 163.84375 228.214844 164.351562 228.761719 164.945312 229.355469 C 166.113281 230.558594 167.566406 232.003906 169.324219 233.585938 C 171.070312 235.179688 173.082031 236.953125 175.355469 238.828125 C 176.585938 239.847656 177.898438 240.90625 179.257812 241.992188 C 175.335938 239.296875 171.558594 236.703125 168.050781 234.101562 C 163.515625 230.753906 159.414062 227.398438 155.867188 224.054688 C 152.3125 220.722656 149.308594 217.414062 146.871094 214.289062 C 144.433594 211.167969 142.527344 208.269531 141.082031 205.796875 C 139.636719 203.328125 138.636719 201.300781 137.957031 199.914062 C 137.3125 198.511719 136.964844 197.761719 136.964844 197.761719 C 136.964844 197.761719 137.199219 198.554688 137.644531 200.039062 C 138.144531 201.5 138.835938 203.679688 140.03125 206.332031 C 141.210938 208.988281 142.792969 212.171875 145.019531 215.59375 C 145.46875 216.292969 145.945312 217.007812 146.445312 217.730469 C 144.890625 215.839844 143.480469 213.953125 142.21875 212.101562 C 141.554688 211.160156 140.96875 210.203125 140.375 209.285156 C 139.816406 208.347656 139.25 207.449219 138.757812 206.542969 C 136.757812 202.945312 135.253906 199.65625 134.164062 196.886719 C 133.886719 196.195312 133.628906 195.539062 133.410156 194.910156 C 133.183594 194.285156 132.972656 193.699219 132.773438 193.15625 C 132.414062 192.054688 132.085938 191.121094 131.859375 190.355469 C 131.402344 188.820312 131.15625 188 131.15625 188 C 131.15625 188 131.285156 188.84375 131.527344 190.433594 " fill-opacity="1" fill-rule="nonzero"/></g><g clip-path="url(#a0df7ba65f)"><path fill="#3871c1" d="M 156.53125 194.375 C 157.050781 196.710938 157.785156 199.035156 158.714844 201.28125 C 159.644531 203.523438 160.785156 205.667969 162.039062 207.695312 C 163.308594 209.710938 164.703125 211.605469 166.171875 213.367188 C 167.644531 215.117188 169.1875 216.742188 170.761719 218.25 C 172.324219 219.773438 173.925781 221.167969 175.527344 222.472656 C 177.125 223.78125 178.71875 225.003906 180.289062 226.164062 C 183.429688 228.480469 186.492188 230.511719 189.367188 232.390625 C 192.246094 234.261719 194.949219 235.96875 197.414062 237.535156 C 199.875 239.101562 202.117188 240.515625 204.074219 241.796875 C 206.015625 243.089844 207.71875 244.195312 209.085938 245.144531 C 209.769531 245.613281 210.382812 246.039062 210.914062 246.402344 C 211.449219 246.769531 211.902344 247.082031 212.257812 247.34375 C 212.992188 247.851562 213.378906 248.125 213.378906 248.125 C 213.378906 248.125 213.070312 247.765625 212.484375 247.089844 C 212.191406 246.757812 211.828125 246.34375 211.382812 245.867188 C 210.945312 245.386719 210.4375 244.839844 209.84375 244.246094 C 208.675781 243.046875 207.222656 241.597656 205.464844 240.015625 C 203.71875 238.417969 201.707031 236.648438 199.433594 234.773438 C 198.199219 233.753906 196.894531 232.699219 195.53125 231.609375 C 199.453125 234.304688 203.230469 236.898438 206.738281 239.503906 C 211.277344 242.847656 215.375 246.203125 218.921875 249.546875 C 222.476562 252.878906 225.480469 256.191406 227.917969 259.3125 C 230.359375 262.433594 232.265625 265.335938 233.710938 267.804688 C 235.152344 270.273438 236.152344 272.304688 236.832031 273.691406 C 237.476562 275.09375 237.824219 275.839844 237.824219 275.839844 C 237.824219 275.839844 237.589844 275.050781 237.144531 273.566406 C 236.644531 272.101562 235.953125 269.921875 234.757812 267.273438 C 233.582031 264.617188 231.996094 261.429688 229.769531 258.011719 C 229.320312 257.308594 228.84375 256.59375 228.34375 255.871094 C 229.898438 257.761719 231.308594 259.648438 232.570312 261.5 C 233.230469 262.441406 233.820312 263.398438 234.414062 264.316406 C 234.972656 265.253906 235.539062 266.152344 236.03125 267.058594 C 238.03125 270.65625 239.539062 273.949219 240.628906 276.71875 C 240.902344 277.40625 241.160156 278.0625 241.378906 278.691406 C 241.605469 279.316406 241.816406 279.902344 242.015625 280.445312 C 242.375 281.546875 242.703125 282.480469 242.929688 283.246094 C 243.386719 284.785156 243.636719 285.601562 243.636719 285.601562 C 243.636719 285.601562 243.503906 284.757812 243.261719 283.167969 C 243.125 282.375 242.925781 281.40625 242.707031 280.253906 C 242.574219 279.6875 242.433594 279.070312 242.285156 278.417969 C 242.136719 277.761719 241.953125 277.070312 241.742188 276.347656 C 240.945312 273.433594 239.804688 269.914062 238.054688 266.042969 C 237.632812 265.070312 237.132812 264.09375 236.644531 263.074219 C 236.117188 262.074219 235.597656 261.035156 234.992188 260.003906 C 233.820312 257.921875 232.480469 255.789062 230.953125 253.65625 C 229.597656 251.738281 228.09375 249.816406 226.46875 247.902344 C 227.300781 248.746094 228.097656 249.582031 228.855469 250.40625 C 231.738281 253.558594 234.054688 256.53125 235.847656 259.066406 C 236.746094 260.335938 237.5 261.507812 238.164062 262.523438 C 238.796875 263.554688 239.367188 264.421875 239.769531 265.15625 C 240.191406 265.882812 240.511719 266.441406 240.730469 266.816406 C 240.933594 267.199219 241.039062 267.394531 241.039062 267.394531 C 241.039062 267.394531 240.960938 267.1875 240.808594 266.78125 C 240.640625 266.378906 240.394531 265.78125 240.070312 265.003906 C 239.753906 264.222656 239.300781 263.289062 238.792969 262.175781 C 238.25 261.082031 237.628906 259.8125 236.84375 258.445312 C 235.300781 255.699219 233.285156 252.414062 230.589844 248.960938 C 227.929688 245.484375 224.660156 241.773438 220.835938 238.105469 C 217.019531 234.421875 212.667969 230.757812 208.03125 227.148438 C 203.394531 223.535156 198.472656 219.964844 193.664062 216.28125 C 191.261719 214.441406 188.894531 212.5625 186.652344 210.617188 C 184.429688 208.664062 182.292969 206.660156 180.417969 204.570312 C 178.535156 202.472656 176.914062 200.296875 175.613281 198.035156 C 174.949219 196.910156 174.414062 195.75 173.917969 194.578125 C 173.433594 193.398438 173.058594 192.1875 172.734375 190.960938 C 172.449219 189.722656 172.183594 188.46875 172.054688 187.171875 C 172.007812 186.851562 171.984375 186.527344 171.964844 186.199219 L 171.890625 185.21875 C 171.898438 184.59375 171.894531 183.976562 171.886719 183.351562 C 171.96875 180.886719 172.402344 178.503906 173.1875 176.210938 L 173.503906 175.363281 C 173.609375 175.078125 173.699219 174.789062 173.847656 174.519531 C 174.109375 173.964844 174.371094 173.414062 174.632812 172.863281 C 174.949219 172.332031 175.257812 171.796875 175.558594 171.261719 C 175.878906 170.730469 176.261719 170.230469 176.605469 169.707031 C 178.070312 167.671875 179.820312 165.78125 181.75 164.054688 C 183.707031 162.347656 185.84375 160.820312 188.042969 159.433594 C 189.175781 158.78125 190.273438 158.097656 191.4375 157.527344 C 192.570312 156.90625 193.753906 156.394531 194.902344 155.855469 C 199.570312 153.796875 204.304688 152.394531 208.75 151.445312 C 213.207031 150.507812 217.390625 150.03125 221.101562 149.890625 C 224.816406 149.769531 228.050781 149.925781 230.703125 150.171875 C 232.015625 150.347656 233.210938 150.4375 234.21875 150.632812 C 235.230469 150.804688 236.113281 150.910156 236.796875 151.085938 C 238.1875 151.375 238.929688 151.53125 238.929688 151.53125 C 238.929688 151.53125 238.21875 151.265625 236.886719 150.761719 C 236.222656 150.492188 235.371094 150.257812 234.375 149.941406 C 233.386719 149.601562 232.207031 149.347656 230.890625 149.023438 C 228.242188 148.453125 224.964844 147.867188 221.128906 147.648438 C 217.296875 147.410156 212.917969 147.46875 208.183594 148.09375 C 206.003906 148.378906 203.746094 148.78125 201.445312 149.3125 C 202.542969 148.960938 203.617188 148.644531 204.660156 148.367188 C 208.433594 147.382812 211.796875 146.734375 214.59375 146.355469 C 215.992188 146.175781 217.246094 146.046875 218.339844 145.921875 C 219.4375 145.839844 220.371094 145.769531 221.128906 145.714844 C 221.886719 145.664062 222.46875 145.660156 222.859375 145.640625 C 223.253906 145.628906 223.457031 145.621094 223.457031 145.621094 C 223.457031 145.621094 223.253906 145.601562 222.863281 145.554688 C 222.472656 145.519531 221.890625 145.4375 221.132812 145.378906 C 220.367188 145.332031 219.425781 145.277344 218.320312 145.210938 C 217.210938 145.191406 215.933594 145.160156 214.5 145.191406 C 211.636719 145.257812 208.144531 145.496094 204.179688 146.171875 C 203.292969 146.320312 202.378906 146.496094 201.449219 146.691406 C 201.46875 146.683594 201.492188 146.675781 201.511719 146.667969 C 206.257812 145.257812 210.753906 144.410156 214.78125 143.917969 C 218.8125 143.457031 222.367188 143.328125 225.300781 143.351562 C 226.765625 143.402344 228.085938 143.402344 229.222656 143.503906 C 230.363281 143.585938 231.34375 143.621094 232.125 143.738281 C 233.703125 143.910156 234.542969 144.003906 234.542969 144.003906 C 234.542969 144.003906 233.722656 143.796875 232.183594 143.402344 C 231.410156 143.195312 230.445312 143.027344 229.3125 142.800781 C 228.179688 142.550781 226.859375 142.390625 225.382812 142.1875 C 222.421875 141.847656 218.792969 141.546875 214.617188 141.675781 C 210.445312 141.804688 205.71875 142.25 200.664062 143.375 C 195.613281 144.5 190.203125 146.207031 184.800781 148.875 C 182.097656 150.203125 179.425781 151.816406 176.804688 153.652344 C 174.214844 155.542969 171.710938 157.71875 169.421875 160.222656 C 168.867188 160.867188 168.3125 161.515625 167.753906 162.167969 C 167.5 162.511719 167.246094 162.859375 166.992188 163.203125 C 167.128906 162.988281 167.273438 162.761719 167.410156 162.546875 C 167.628906 162.179688 167.886719 161.851562 168.132812 161.519531 C 168.378906 161.1875 168.621094 160.859375 168.863281 160.535156 C 169.109375 160.210938 169.34375 159.882812 169.589844 159.570312 C 169.847656 159.265625 170.101562 158.96875 170.351562 158.675781 C 170.859375 158.09375 171.328125 157.484375 171.839844 156.957031 C 172.863281 155.898438 173.808594 154.851562 174.792969 153.992188 C 175.28125 153.546875 175.75 153.113281 176.203125 152.699219 C 176.675781 152.308594 177.125 151.929688 177.566406 151.566406 C 178.003906 151.203125 178.417969 150.84375 178.824219 150.519531 C 179.242188 150.207031 179.636719 149.910156 180.015625 149.625 C 181.515625 148.476562 182.746094 147.660156 183.582031 147.082031 C 183.996094 146.789062 184.316406 146.566406 184.542969 146.433594 C 184.761719 146.296875 184.875 146.222656 184.875 146.222656 C 184.875 146.222656 184.75 146.269531 184.503906 146.359375 C 184.253906 146.441406 183.890625 146.589844 183.421875 146.785156 C 182.496094 147.203125 181.082031 147.722656 179.390625 148.640625 C 178.960938 148.859375 178.511719 149.089844 178.039062 149.335938 C 177.570312 149.589844 177.089844 149.882812 176.582031 150.179688 C 176.082031 150.480469 175.554688 150.792969 175.011719 151.117188 C 174.484375 151.480469 173.941406 151.855469 173.378906 152.246094 C 172.234375 152.996094 171.097656 153.941406 169.875 154.910156 C 169.265625 155.398438 168.6875 155.972656 168.074219 156.527344 C 167.769531 156.8125 167.460938 157.097656 167.152344 157.390625 C 166.851562 157.691406 166.5625 158.015625 166.261719 158.332031 C 165.964844 158.65625 165.664062 158.980469 165.359375 159.3125 C 165.058594 159.644531 164.742188 159.96875 164.464844 160.339844 C 163.894531 161.070312 163.3125 161.816406 162.71875 162.570312 C 162.175781 163.371094 161.632812 164.199219 161.089844 165.042969 C 160.804688 165.457031 160.570312 165.914062 160.324219 166.363281 C 160.078125 166.820312 159.832031 167.277344 159.585938 167.738281 C 157.6875 171.46875 156.296875 175.824219 155.773438 180.429688 C 155.710938 181.007812 155.648438 181.585938 155.585938 182.164062 C 155.554688 182.746094 155.550781 183.328125 155.535156 183.910156 C 155.523438 184.496094 155.515625 185.082031 155.503906 185.671875 C 155.492188 186.261719 155.546875 186.816406 155.566406 187.394531 C 155.699219 189.691406 155.980469 192.039062 156.53125 194.375 " fill-opacity="1" fill-rule="nonzero"/></g><g fill="#ffffff" fill-opacity="1"><g transform="translate(135.289257, 252.088899)"><g><path d="M 3.859375 0 L 3.859375 -32.203125 L 10.078125 -32.203125 L 24.28125 -12.609375 L 24.28125 -32.203125 L 31.5625 -32.203125 L 31.5625 0 L 25.34375 0 L 11.125 -19.734375 L 11.125 0 Z M 3.859375 0 "/></g></g></g><g fill="#ffffff" fill-opacity="1"><g transform="translate(170.246269, 252.088899)"><g><path d="M 3.859375 0 L 3.859375 -32.203125 L 17.625 -32.203125 C 20.070312 -32.203125 22.195312 -31.753906 24 -30.859375 C 25.8125 -29.972656 27.207031 -28.703125 28.1875 -27.046875 C 29.175781 -25.390625 29.671875 -23.410156 29.671875 -21.109375 C 29.671875 -18.753906 29.132812 -16.722656 28.0625 -15.015625 C 26.988281 -13.316406 25.484375 -12.035156 23.546875 -11.171875 L 30.21875 0 L 21.765625 0 L 16.015625 -10.03125 L 11.171875 -10.03125 L 11.171875 0 Z M 11.09375 -16.1875 L 16.65625 -16.1875 C 18.457031 -16.1875 19.84375 -16.609375 20.8125 -17.453125 C 21.78125 -18.296875 22.265625 -19.5 22.265625 -21.0625 C 22.265625 -22.625 21.78125 -23.828125 20.8125 -24.671875 C 19.84375 -25.515625 18.457031 -25.9375 16.65625 -25.9375 L 11.09375 -25.9375 Z M 11.09375 -16.1875 "/></g></g></g><g fill="#ffffff" fill-opacity="1"><g transform="translate(202.167541, 252.088899)"><g><path d="M 18.859375 0.640625 C 15.578125 0.640625 12.660156 -0.0703125 10.109375 -1.5 C 7.566406 -2.925781 5.578125 -4.894531 4.140625 -7.40625 C 2.703125 -9.914062 1.984375 -12.8125 1.984375 -16.09375 C 1.984375 -19.375 2.691406 -22.269531 4.109375 -24.78125 C 5.535156 -27.300781 7.515625 -29.273438 10.046875 -30.703125 C 12.578125 -32.128906 15.46875 -32.84375 18.71875 -32.84375 C 21.320312 -32.84375 23.726562 -32.378906 25.9375 -31.453125 C 28.144531 -30.535156 30.023438 -29.238281 31.578125 -27.5625 C 33.128906 -25.894531 34.226562 -23.929688 34.875 -21.671875 L 27 -21.671875 C 26.238281 -23.078125 25.144531 -24.171875 23.71875 -24.953125 C 22.289062 -25.734375 20.671875 -26.125 18.859375 -26.125 C 16.984375 -26.125 15.328125 -25.691406 13.890625 -24.828125 C 12.453125 -23.972656 11.328125 -22.796875 10.515625 -21.296875 C 9.703125 -19.796875 9.296875 -18.0625 9.296875 -16.09375 C 9.296875 -14.164062 9.691406 -12.445312 10.484375 -10.9375 C 11.285156 -9.4375 12.40625 -8.25 13.84375 -7.375 C 15.289062 -6.507812 16.992188 -6.078125 18.953125 -6.078125 C 21.316406 -6.078125 23.28125 -6.671875 24.84375 -7.859375 C 26.40625 -9.054688 27.414062 -10.640625 27.875 -12.609375 L 17.4375 -12.609375 L 17.4375 -18.265625 L 35.609375 -18.265625 C 35.785156 -15.503906 35.515625 -12.972656 34.796875 -10.671875 C 34.078125 -8.367188 32.972656 -6.363281 31.484375 -4.65625 C 29.992188 -2.957031 28.179688 -1.648438 26.046875 -0.734375 C 23.921875 0.179688 21.523438 0.640625 18.859375 0.640625 Z M 18.859375 0.640625 "/></g></g></g><g fill="#ffffff" fill-opacity="1"><g transform="translate(153.020795, 270.568079)"><g><path d="M 3.765625 0.109375 C 3.148438 0.109375 2.601562 -0.0234375 2.125 -0.296875 C 1.644531 -0.578125 1.265625 -0.960938 0.984375 -1.453125 C 0.710938 -1.953125 0.578125 -2.519531 0.578125 -3.15625 C 0.578125 -3.789062 0.710938 -4.351562 0.984375 -4.84375 C 1.265625 -5.332031 1.644531 -5.71875 2.125 -6 C 2.601562 -6.28125 3.148438 -6.421875 3.765625 -6.421875 C 4.242188 -6.421875 4.6875 -6.332031 5.09375 -6.15625 C 5.507812 -5.976562 5.863281 -5.726562 6.15625 -5.40625 C 6.445312 -5.082031 6.660156 -4.695312 6.796875 -4.25 L 6.234375 -4.25 C 6.046875 -4.75 5.734375 -5.144531 5.296875 -5.4375 C 4.859375 -5.726562 4.351562 -5.875 3.78125 -5.875 C 3.269531 -5.875 2.8125 -5.757812 2.40625 -5.53125 C 2.007812 -5.300781 1.695312 -4.976562 1.46875 -4.5625 C 1.25 -4.15625 1.140625 -3.6875 1.140625 -3.15625 C 1.140625 -2.613281 1.25 -2.132812 1.46875 -1.71875 C 1.695312 -1.3125 2.007812 -0.992188 2.40625 -0.765625 C 2.8125 -0.546875 3.269531 -0.4375 3.78125 -0.4375 C 4.363281 -0.4375 4.878906 -0.582031 5.328125 -0.875 C 5.785156 -1.175781 6.101562 -1.585938 6.28125 -2.109375 L 6.859375 -2.109375 C 6.734375 -1.660156 6.519531 -1.269531 6.21875 -0.9375 C 5.914062 -0.601562 5.554688 -0.34375 5.140625 -0.15625 C 4.722656 0.0195312 4.265625 0.109375 3.765625 0.109375 Z M 3.765625 0.109375 "/></g></g></g><g fill="#ffffff" fill-opacity="1"><g transform="translate(164.018881, 270.568079)"><g><path d="M 3.828125 0.109375 C 3.191406 0.109375 2.628906 -0.0234375 2.140625 -0.296875 C 1.648438 -0.578125 1.265625 -0.960938 0.984375 -1.453125 C 0.710938 -1.941406 0.578125 -2.507812 0.578125 -3.15625 C 0.578125 -3.789062 0.710938 -4.351562 0.984375 -4.84375 C 1.265625 -5.34375 1.648438 -5.726562 2.140625 -6 C 2.628906 -6.28125 3.191406 -6.421875 3.828125 -6.421875 C 4.460938 -6.421875 5.023438 -6.28125 5.515625 -6 C 6.003906 -5.726562 6.382812 -5.34375 6.65625 -4.84375 C 6.9375 -4.351562 7.078125 -3.789062 7.078125 -3.15625 C 7.078125 -2.507812 6.9375 -1.941406 6.65625 -1.453125 C 6.382812 -0.960938 6.003906 -0.578125 5.515625 -0.296875 C 5.023438 -0.0234375 4.460938 0.109375 3.828125 0.109375 Z M 1.140625 -3.15625 C 1.140625 -2.613281 1.25 -2.132812 1.46875 -1.71875 C 1.695312 -1.3125 2.015625 -0.992188 2.421875 -0.765625 C 2.828125 -0.546875 3.296875 -0.4375 3.828125 -0.4375 C 4.359375 -0.4375 4.828125 -0.546875 5.234375 -0.765625 C 5.640625 -0.992188 5.957031 -1.3125 6.1875 -1.71875 C 6.414062 -2.132812 6.53125 -2.613281 6.53125 -3.15625 C 6.53125 -3.6875 6.414062 -4.15625 6.1875 -4.5625 C 5.957031 -4.976562 5.640625 -5.300781 5.234375 -5.53125 C 4.828125 -5.757812 4.359375 -5.875 3.828125 -5.875 C 3.296875 -5.875 2.828125 -5.757812 2.421875 -5.53125 C 2.015625 -5.300781 1.695312 -4.976562 1.46875 -4.5625 C 1.25 -4.15625 1.140625 -3.6875 1.140625 -3.15625 Z M 1.140625 -3.15625 "/></g></g></g><g fill="#ffffff" fill-opacity="1"><g transform="translate(175.268965, 270.568079)"><g><path d="M 1.015625 0 L 1.015625 -6.296875 L 1.53125 -6.296875 L 5.359375 -0.9375 L 5.359375 -6.296875 L 5.90625 -6.296875 L 5.90625 0 L 5.390625 0 L 1.5625 -5.359375 L 1.5625 0 Z M 1.015625 0 "/></g></g></g><g fill="#ffffff" fill-opacity="1"><g transform="translate(185.790038, 270.568079)"><g><path d="M 1.015625 0 L 1.015625 -6.296875 L 1.53125 -6.296875 L 5.359375 -0.9375 L 5.359375 -6.296875 L 5.90625 -6.296875 L 5.90625 0 L 5.390625 0 L 1.5625 -5.359375 L 1.5625 0 Z M 1.015625 0 "/></g></g></g><g fill="#ffffff" fill-opacity="1"><g transform="translate(196.311111, 270.568079)"><g><path d="M 1.015625 0 L 1.015625 -6.296875 L 4.71875 -6.296875 L 4.71875 -5.78125 L 1.5625 -5.78125 L 1.5625 -3.46875 L 4.484375 -3.46875 L 4.484375 -2.96875 L 1.5625 -2.96875 L 1.5625 -0.515625 L 4.828125 -0.515625 L 4.828125 0 Z M 1.015625 0 "/></g></g></g><g fill="#ffffff" fill-opacity="1"><g transform="translate(205.392172, 270.568079)"><g><path d="M 3.765625 0.109375 C 3.148438 0.109375 2.601562 -0.0234375 2.125 -0.296875 C 1.644531 -0.578125 1.265625 -0.960938 0.984375 -1.453125 C 0.710938 -1.953125 0.578125 -2.519531 0.578125 -3.15625 C 0.578125 -3.789062 0.710938 -4.351562 0.984375 -4.84375 C 1.265625 -5.332031 1.644531 -5.71875 2.125 -6 C 2.601562 -6.28125 3.148438 -6.421875 3.765625 -6.421875 C 4.242188 -6.421875 4.6875 -6.332031 5.09375 -6.15625 C 5.507812 -5.976562 5.863281 -5.726562 6.15625 -5.40625 C 6.445312 -5.082031 6.660156 -4.695312 6.796875 -4.25 L 6.234375 -4.25 C 6.046875 -4.75 5.734375 -5.144531 5.296875 -5.4375 C 4.859375 -5.726562 4.351562 -5.875 3.78125 -5.875 C 3.269531 -5.875 2.8125 -5.757812 2.40625 -5.53125 C 2.007812 -5.300781 1.695312 -4.976562 1.46875 -4.5625 C 1.25 -4.15625 1.140625 -3.6875 1.140625 -3.15625 C 1.140625 -2.613281 1.25 -2.132812 1.46875 -1.71875 C 1.695312 -1.3125 2.007812 -0.992188 2.40625 -0.765625 C 2.8125 -0.546875 3.269531 -0.4375 3.78125 -0.4375 C 4.363281 -0.4375 4.878906 -0.582031 5.328125 -0.875 C 5.785156 -1.175781 6.101562 -1.585938 6.28125 -2.109375 L 6.859375 -2.109375 C 6.734375 -1.660156 6.519531 -1.269531 6.21875 -0.9375 C 5.914062 -0.601562 5.554688 -0.34375 5.140625 -0.15625 C 4.722656 0.0195312 4.265625 0.109375 3.765625 0.109375 Z M 3.765625 0.109375 "/></g></g></g><g fill="#ffffff" fill-opacity="1"><g transform="translate(216.390258, 270.568079)"><g><path d="M 2.515625 0 L 2.515625 -5.78125 L 0.34375 -5.78125 L 0.34375 -6.296875 L 5.234375 -6.296875 L 5.234375 -5.78125 L 3.046875 -5.78125 L 3.046875 0 Z M 2.515625 0 "/></g></g></g></svg>